
<svg width="14" height="12" viewBox="0 0 14 12" fill="none" xmlns="http://www.w3.org/2000/svg">
<path d="M6.47496 2.1001H4.89997C3.57977 2.1001 2.92037 2.1001 2.51017 2.5103C2.09998 2.9205 2.09998 3.57989 2.09998 4.90009V9.27508H11.9V4.90009C11.9 3.57989 11.9 2.9205 11.4898 2.5103C11.0796 2.1001 10.4202 2.1001 9.09996 2.1001H7.52496V5.58119L8.00096 5.02539C8.04582 4.97299 8.10056 4.92994 8.16206 4.8987C8.22355 4.86746 8.2906 4.84864 8.35937 4.84331C8.42814 4.83798 8.49729 4.84624 8.56287 4.86764C8.62844 4.88903 8.68916 4.92313 8.74156 4.96799C8.79396 5.01285 8.837 5.06759 8.86825 5.12909C8.89949 5.19058 8.91831 5.25763 8.92364 5.3264C8.92897 5.39517 8.9207 5.46432 8.89931 5.5299C8.87792 5.59547 8.84382 5.65619 8.79896 5.70859L7.39896 7.34168C7.34968 7.39932 7.28849 7.44559 7.21961 7.47732C7.15073 7.50905 7.0758 7.52547 6.99996 7.52547C6.92413 7.52547 6.84919 7.50905 6.78032 7.47732C6.71144 7.44559 6.65025 7.39932 6.60096 7.34168L5.20097 5.70859C5.15611 5.65619 5.12201 5.59547 5.10062 5.5299C5.07922 5.46432 5.07095 5.39517 5.07628 5.3264C5.08161 5.25763 5.10044 5.19058 5.13168 5.12909C5.16292 5.06759 5.20597 5.01285 5.25837 4.96799C5.31076 4.92313 5.37148 4.88903 5.43706 4.86764C5.50264 4.84624 5.57178 4.83798 5.64055 4.84331C5.70933 4.84864 5.77637 4.86746 5.83787 4.8987C5.89937 4.92994 5.95411 4.97299 5.99897 5.02539L6.47496 5.58119V2.1001ZM2.12098 10.3251H11.879C11.8426 10.8781 11.7467 11.233 11.4898 11.4899C11.0796 11.9001 10.4202 11.9001 9.09996 11.9001H4.89997C3.57977 11.9001 2.92037 11.9001 2.51017 11.4899C2.25328 11.233 2.15668 10.8788 2.12098 10.3251Z" fill="#001E9A"/>
<path d="M2.72233 0H11.277C12.782 0 14 1.26 14 2.81399C14 3.71699 13.5891 4.51989 12.95 5.03509V4.83769C12.95 4.23149 12.95 3.67569 12.8891 3.22419C12.8226 2.72649 12.6651 2.20009 12.2325 1.7682C11.7999 1.3349 11.2735 1.1774 10.7765 1.1102C10.3243 1.05 9.76851 1.05 9.16231 1.05H4.83702C4.23152 1.05 3.67573 1.05 3.22423 1.1109C2.72653 1.1774 2.20013 1.3349 1.76823 1.7675C1.33493 2.20009 1.17743 2.72649 1.11023 3.22349C1.05003 3.67569 1.05003 4.23149 1.05003 4.83769V5.03509C0.720128 4.76689 0.45455 4.42814 0.272839 4.04376C0.0911277 3.65938 -0.00209287 3.23915 3.56463e-05 2.81399C3.56463e-05 1.26 1.21873 0 2.72233 0Z" fill="#001E9A"/>
</svg>
